<svg id="Group_22100" data-name="Group 22100" xmlns="http://www.w3.org/2000/svg" width="194" height="194" viewBox="0 0 194 194">
  <path id="Path_17942" data-name="Path 17942" d="M97,194a97,97,0,0,0,97-97L97,0a97,97,0,0,0,0,194Z" fill="#046ccc"/>
  <path id="Path_17943" data-name="Path 17943" d="M194,97A97,97,0,0,1,97,0Z" fill="rgba(0,0,0,0.2)"/>
  <path id="Path_17944" data-name="Path 17944" d="M71.237,84.04V98h-2.8V88.92L64.7,98h-2.12l-3.76-9.08V98h-2.8V84.04H59.2l4.44,10.38,4.44-10.38Zm7.688,14.14a5.9,5.9,0,0,1-2.88-.7,5.25,5.25,0,0,1-2.02-2.02,6.09,6.09,0,0,1-.72-3,5.957,5.957,0,0,1,.74-3,5.21,5.21,0,0,1,2.06-2,6.2,6.2,0,0,1,5.8,0,5.077,5.077,0,0,1,2.04,2,5.835,5.835,0,0,1,.76,3,5.717,5.717,0,0,1-.78,3,5.314,5.314,0,0,1-2.08,2.02A6.059,6.059,0,0,1,78.925,98.18Zm0-2.44a2.919,2.919,0,0,0,1.42-.36,2.737,2.737,0,0,0,1.08-1.12,3.741,3.741,0,0,0,.4-1.8,3.276,3.276,0,0,0-.84-2.42,2.8,2.8,0,0,0-4.04,0,3.375,3.375,0,0,0-.8,2.42,3.506,3.506,0,0,0,.78,2.44A2.648,2.648,0,0,0,78.925,95.74Zm11.094-6.52v5.36a1.12,1.12,0,0,0,.26.82,1.409,1.409,0,0,0,.92.24h1.3V98h-1.76q-3.54,0-3.54-3.44V89.22h-1.32v-2.3H87.2V84.18h2.82v2.74H92.5v2.3Zm5.914-3.62a1.762,1.762,0,0,1-1.24-.46,1.6,1.6,0,0,1-.48-1.18,1.539,1.539,0,0,1,.48-1.16,1.721,1.721,0,0,1,1.24-.48,1.653,1.653,0,0,1,1.22.48,1.509,1.509,0,0,1,.5,1.16,1.572,1.572,0,0,1-.5,1.18A1.692,1.692,0,0,1,95.933,85.6Zm1.38,1.32V98h-2.8V86.92ZM105,98.18a5.9,5.9,0,0,1-2.88-.7,5.244,5.244,0,0,1-2.02-2.02,6.086,6.086,0,0,1-.72-3,5.953,5.953,0,0,1,.74-3,5.2,5.2,0,0,1,2.06-2,6.2,6.2,0,0,1,5.8,0,5.084,5.084,0,0,1,2.04,2,5.841,5.841,0,0,1,.76,3,5.717,5.717,0,0,1-.78,3,5.316,5.316,0,0,1-2.08,2.02A6.06,6.06,0,0,1,105,98.18Zm0-2.44a2.921,2.921,0,0,0,1.42-.36,2.741,2.741,0,0,0,1.08-1.12,3.748,3.748,0,0,0,.4-1.8,3.276,3.276,0,0,0-.84-2.42,2.8,2.8,0,0,0-4.04,0,3.372,3.372,0,0,0-.8,2.42A3.506,3.506,0,0,0,103,94.9,2.647,2.647,0,0,0,105,95.74Zm13.973-8.98a4.252,4.252,0,0,1,3.2,1.26,4.748,4.748,0,0,1,1.22,3.48V98h-2.8V91.88a2.836,2.836,0,0,0-.66-2.02,2.321,2.321,0,0,0-1.8-.72,2.412,2.412,0,0,0-1.84.72,2.836,2.836,0,0,0-.66,2.02V98h-2.8V86.92h2.8V88.3a3.8,3.8,0,0,1,1.42-1.12A4.4,4.4,0,0,1,118.973,86.76ZM60.956,114.04a8.282,8.282,0,0,1,3.86.86,6.047,6.047,0,0,1,2.58,2.46,7.82,7.82,0,0,1,0,7.36,6.119,6.119,0,0,1-2.58,2.42,8.282,8.282,0,0,1-3.86.86h-4.88V114.04Zm-.1,11.58a4.8,4.8,0,0,0,3.4-7.98,4.511,4.511,0,0,0-3.4-1.24h-1.98v9.22Zm19.856-3.4a6.612,6.612,0,0,1-.08,1.08h-8.1a2.754,2.754,0,0,0,.84,1.88,2.592,2.592,0,0,0,1.82.68,2.287,2.287,0,0,0,2.22-1.34h3.02a5.1,5.1,0,0,1-1.84,2.64,5.408,5.408,0,0,1-3.34,1.02,5.9,5.9,0,0,1-2.88-.7,5.15,5.15,0,0,1-1.98-2.02,6.821,6.821,0,0,1,0-6.02,4.884,4.884,0,0,1,1.96-2,5.868,5.868,0,0,1,2.9-.7,5.772,5.772,0,0,1,2.82.68,4.689,4.689,0,0,1,1.94,1.94A5.718,5.718,0,0,1,80.712,122.22Zm-2.9-.8a2.19,2.19,0,0,0-.78-1.72,2.738,2.738,0,0,0-1.86-.66,2.553,2.553,0,0,0-1.76.64,2.749,2.749,0,0,0-.86,1.74ZM87,128.18a5.947,5.947,0,0,1-2.44-.48,4.472,4.472,0,0,1-1.72-1.34,3.409,3.409,0,0,1-.68-1.86h2.82a1.546,1.546,0,0,0,.62,1.06,2.234,2.234,0,0,0,1.38.42,2.082,2.082,0,0,0,1.24-.32.964.964,0,0,0,.46-.82.846.846,0,0,0-.56-.8,9.24,9.24,0,0,0-1.74-.6,15.374,15.374,0,0,1-2.04-.62,3.622,3.622,0,0,1-1.36-.98,2.66,2.66,0,0,1-.56-1.78,2.912,2.912,0,0,1,.52-1.68,3.635,3.635,0,0,1,1.52-1.2,5.775,5.775,0,0,1,2.34-.44,4.724,4.724,0,0,1,3.16,1,3.634,3.634,0,0,1,1.3,2.66h-2.68a1.405,1.405,0,0,0-.56-1.04,1.966,1.966,0,0,0-1.3-.4,2.112,2.112,0,0,0-1.18.28.9.9,0,0,0-.4.78.937.937,0,0,0,.56.86,9.245,9.245,0,0,0,1.74.58,14.818,14.818,0,0,1,1.98.62,3.38,3.38,0,0,1,1.34,1,2.648,2.648,0,0,1,.6,1.76,2.9,2.9,0,0,1-.54,1.72,3.476,3.476,0,0,1-1.52,1.2A5.806,5.806,0,0,1,87,128.18Zm8.078-12.58a1.761,1.761,0,0,1-1.24-.46,1.6,1.6,0,0,1-.48-1.18,1.539,1.539,0,0,1,.48-1.16,1.721,1.721,0,0,1,1.24-.48,1.653,1.653,0,0,1,1.22.48,1.509,1.509,0,0,1,.5,1.16,1.571,1.571,0,0,1-.5,1.18A1.69,1.69,0,0,1,95.074,115.6Zm1.38,1.32V128h-2.8V116.92Zm7.106-.18a4.575,4.575,0,0,1,2.18.5,3.929,3.929,0,0,1,1.48,1.26v-1.58h2.82v11.16a5.874,5.874,0,0,1-.62,2.74,4.527,4.527,0,0,1-1.86,1.92,5.876,5.876,0,0,1-3,.72,6.458,6.458,0,0,1-3.88-1.1,4.087,4.087,0,0,1-1.7-3h2.78a2.039,2.039,0,0,0,.94,1.2,3.3,3.3,0,0,0,1.78.46,2.717,2.717,0,0,0,1.98-.74,2.9,2.9,0,0,0,.76-2.2v-1.72a4.234,4.234,0,0,1-1.5,1.3,4.381,4.381,0,0,1-2.16.52,4.761,4.761,0,0,1-2.56-.72,5.1,5.1,0,0,1-1.84-2.02,6.665,6.665,0,0,1-.66-3.02,6.494,6.494,0,0,1,.66-2.98,5,5,0,0,1,1.82-2A4.9,4.9,0,0,1,103.56,116.74Zm3.66,5.72a3.53,3.53,0,0,0-.4-1.74,2.728,2.728,0,0,0-1.08-1.12,2.891,2.891,0,0,0-2.9-.02,2.914,2.914,0,0,0-1.08,1.12,3.5,3.5,0,0,0-.4,1.72,3.732,3.732,0,0,0,.4,1.76,3.076,3.076,0,0,0,1.08,1.14,2.8,2.8,0,0,0,1.44.4,2.948,2.948,0,0,0,1.46-.38,2.9,2.9,0,0,0,1.08-1.12A3.645,3.645,0,0,0,107.22,122.46Zm11.695-5.7a4.252,4.252,0,0,1,3.2,1.26,4.753,4.753,0,0,1,1.22,3.48V128h-2.8v-6.12a2.836,2.836,0,0,0-.66-2.02,2.321,2.321,0,0,0-1.8-.72,2.41,2.41,0,0,0-1.84.72,2.836,2.836,0,0,0-.66,2.02V128h-2.8V116.92h2.8v1.38a3.8,3.8,0,0,1,1.42-1.12A4.4,4.4,0,0,1,118.915,116.76Z" fill="#fff"/>
</svg>
