<svg xmlns="http://www.w3.org/2000/svg" width="194.048" height="190.719" viewBox="0 0 194.048 190.719">
  <g id="Group_22099" data-name="Group 22099" transform="translate(-21.776 -25.105)">
    <path id="Path_17939" data-name="Path 17939" d="M143.906,212.495a97,97,0,0,0,68.589-118.8L93.695,25.105a97,97,0,1,0,50.211,187.39Z" fill="#df2b56"/>
    <path id="Path_17940" data-name="Path 17940" d="M212.5,93.695A97,97,0,0,1,93.7,25.105Z" fill="rgba(0,0,0,0.2)"/>
    <path id="Path_17941" data-name="Path 17941" d="M90.265,122.678a4.288,4.288,0,0,1,.022,2.169,3.82,3.82,0,0,1-1.194,1.955,5.976,5.976,0,0,1-2.588,1.315l-2.26.606,1.387,5.177-2.7.725L79.313,121.14l4.965-1.33a6.2,6.2,0,0,1,2.811-.173,3.835,3.835,0,0,1,2.041,1.047A4.277,4.277,0,0,1,90.265,122.678ZM85.8,125.965a2.458,2.458,0,0,0,1.527-.947,1.987,1.987,0,0,0,.153-1.594q-.528-1.971-2.73-1.381l-2.144.575,1.051,3.922Zm9.159-4.255a3.819,3.819,0,0,1,2.8-2.7l.761,2.839-.715.192a2.327,2.327,0,0,0-1.85,3.374l1.429,5.332-2.7.724-2.868-10.7,2.7-.725Zm12.327,6.573a5.9,5.9,0,0,1-2.963.069,5.259,5.259,0,0,1-2.474-1.428,6.1,6.1,0,0,1-1.472-2.712,5.951,5.951,0,0,1-.061-3.089,5.205,5.205,0,0,1,1.472-2.465,6.2,6.2,0,0,1,5.6-1.5,5.069,5.069,0,0,1,2.488,1.4,5.827,5.827,0,0,1,1.511,2.7,5.721,5.721,0,0,1,.023,3.1,5.317,5.317,0,0,1-1.486,2.489A6.073,6.073,0,0,1,107.289,128.283Zm-.631-2.357a2.916,2.916,0,0,0,1.278-.715,2.742,2.742,0,0,0,.754-1.361,3.754,3.754,0,0,0-.08-1.843,3.278,3.278,0,0,0-1.438-2.12,2.8,2.8,0,0,0-3.9,1.046,3.373,3.373,0,0,0-.146,2.544,3.5,3.5,0,0,0,1.384,2.155A2.649,2.649,0,0,0,106.658,125.926Zm6.012-5.048a6.487,6.487,0,0,1-.134-3.049,4.958,4.958,0,0,1,1.26-2.408,4.893,4.893,0,0,1,2.311-1.344,4.615,4.615,0,0,1,2.114-.07,4.039,4.039,0,0,1,1.828.794l-1.362-5.081,2.743-.735,3.831,14.3-2.743.735-.425-1.584a3.788,3.788,0,0,1-1.068,1.653,4.575,4.575,0,0,1-1.977,1.047,4.75,4.75,0,0,1-2.659-.033,5.093,5.093,0,0,1-2.3-1.475A6.653,6.653,0,0,1,112.67,120.878Zm8.433-2.218a3.527,3.527,0,0,0-.837-1.577,2.735,2.735,0,0,0-1.333-.8,2.892,2.892,0,0,0-2.806.732,2.907,2.907,0,0,0-.753,1.361,3.478,3.478,0,0,0,.059,1.765,3.721,3.721,0,0,0,.841,1.6,3.082,3.082,0,0,0,1.339.822,2.8,2.8,0,0,0,1.494.014,2.95,2.95,0,0,0,1.312-.745,2.906,2.906,0,0,0,.753-1.362A3.647,3.647,0,0,0,121.1,118.66Zm14.035-9.5,2.868,10.7-2.724.73-.362-1.352a3.768,3.768,0,0,1-1.077,1.468,4.4,4.4,0,0,1-1.712.873,4.761,4.761,0,0,1-2.362.074,4.016,4.016,0,0,1-1.945-1.156,5.5,5.5,0,0,1-1.2-2.328l-1.682-6.278,2.7-.725,1.579,5.892a2.91,2.91,0,0,0,1.165,1.8,2.354,2.354,0,0,0,1.92.21,2.381,2.381,0,0,0,1.577-1.147,2.913,2.913,0,0,0,.109-2.141l-1.579-5.892Zm3.407,4.822a6.153,6.153,0,0,1-.1-3.079,4.915,4.915,0,0,1,1.356-2.434,5.556,5.556,0,0,1,2.557-1.43,5.38,5.38,0,0,1,3.553.124,4.949,4.949,0,0,1,2.5,2.311l-2.917.782a2.144,2.144,0,0,0-1.082-.87,2.266,2.266,0,0,0-1.461-.043,2.3,2.3,0,0,0-1.608,1.342,3.81,3.81,0,0,0-.039,2.557,3.855,3.855,0,0,0,1.313,2.195,2.319,2.319,0,0,0,2.057.339,2.122,2.122,0,0,0,1.751-2.043l2.918-.781a5.111,5.111,0,0,1-1.018,3.233,5.365,5.365,0,0,1-3.01,1.9,5.674,5.674,0,0,1-2.924.059,5.09,5.09,0,0,1-2.392-1.43A6.273,6.273,0,0,1,138.545,113.986Zm14.627-7.273,1.388,5.177a1.12,1.12,0,0,0,.463.725,1.409,1.409,0,0,0,.951-.007l1.255-.336.611,2.28-1.7.455q-3.419.916-4.309-2.406l-1.383-5.159-1.275.342-.6-2.222,1.275-.341-.709-2.647,2.724-.73.709,2.647,2.4-.642.595,2.222ZM73.32,153.8l3.613,13.485-2.7.724-2.35-8.77-1.262,9.738-2.048.549-5.982-7.8,2.35,8.77-2.7.725-3.613-13.484,3.072-.823,6.975,8.877,1.6-11.176Zm4.147,7.565a6.5,6.5,0,0,1-.134-3.05,5,5,0,0,1,1.24-2.4,4.9,4.9,0,0,1,2.311-1.344A4.446,4.446,0,0,1,83.1,154.5a4.376,4.376,0,0,1,1.775.828l-.409-1.526,2.724-.73,2.868,10.7-2.724.73-.419-1.565a4.237,4.237,0,0,1-1.112,1.644,4.576,4.576,0,0,1-1.976,1.047,4.75,4.75,0,0,1-2.659-.033,5.151,5.151,0,0,1-2.281-1.48A6.666,6.666,0,0,1,77.468,161.369ZM85.9,159.15a3.539,3.539,0,0,0-.837-1.577,2.737,2.737,0,0,0-1.333-.8,2.889,2.889,0,0,0-2.806.731,2.917,2.917,0,0,0-.753,1.362,3.489,3.489,0,0,0,.059,1.765,3.724,3.724,0,0,0,.842,1.6,3.075,3.075,0,0,0,1.338.822,2.8,2.8,0,0,0,1.494.013,2.94,2.94,0,0,0,1.312-.745,2.908,2.908,0,0,0,.753-1.361A3.652,3.652,0,0,0,85.9,159.15Zm9.821-8.532a4.251,4.251,0,0,1,3.417.389,4.747,4.747,0,0,1,2.079,3.045l1.682,6.279-2.7.725-1.584-5.912a2.835,2.835,0,0,0-1.16-1.78,2.319,2.319,0,0,0-1.925-.23,2.41,2.41,0,0,0-1.591,1.172,2.836,2.836,0,0,0-.115,2.122l1.584,5.911-2.7.725-2.868-10.7,2.7-.725.357,1.333a3.789,3.789,0,0,1,1.082-1.449A4.386,4.386,0,0,1,95.722,150.618Zm7.611,3.82a6.487,6.487,0,0,1-.134-3.049,5.01,5.01,0,0,1,1.24-2.4,4.9,4.9,0,0,1,2.311-1.344,4.459,4.459,0,0,1,2.216-.076,4.377,4.377,0,0,1,1.775.829l-.409-1.526,2.724-.73,2.868,10.7-2.724.73-.419-1.565a4.229,4.229,0,0,1-1.113,1.644,4.568,4.568,0,0,1-1.976,1.048,4.768,4.768,0,0,1-2.659-.033,5.155,5.155,0,0,1-2.281-1.48A6.664,6.664,0,0,1,103.333,154.438Zm8.433-2.218a3.527,3.527,0,0,0-.837-1.577,2.735,2.735,0,0,0-1.333-.8,2.891,2.891,0,0,0-2.806.732,2.908,2.908,0,0,0-.754,1.361,3.5,3.5,0,0,0,.059,1.765,3.732,3.732,0,0,0,.842,1.6,3.071,3.071,0,0,0,1.338.821,2.8,2.8,0,0,0,1.495.014,2.955,2.955,0,0,0,1.312-.745,2.907,2.907,0,0,0,.753-1.361A3.65,3.65,0,0,0,111.766,152.22Zm8.077-8.086a4.57,4.57,0,0,1,2.235-.081,3.934,3.934,0,0,1,1.756.834l-.409-1.526,2.724-.73,2.888,10.779a5.886,5.886,0,0,1,.111,2.808,4.524,4.524,0,0,1-1.3,2.335,5.867,5.867,0,0,1-2.712,1.472,6.448,6.448,0,0,1-4.032-.058,4.088,4.088,0,0,1-2.419-2.458l2.686-.719a2.039,2.039,0,0,0,1.218.916,3.308,3.308,0,0,0,1.839-.017,2.717,2.717,0,0,0,1.721-1.227,2.9,2.9,0,0,0,.164-2.322l-.445-1.661a4.241,4.241,0,0,1-1.112,1.644,4.384,4.384,0,0,1-1.952,1.061,4.75,4.75,0,0,1-2.659-.033,5.093,5.093,0,0,1-2.3-1.475,6.653,6.653,0,0,1-1.419-2.746,6.487,6.487,0,0,1-.134-3.049,5,5,0,0,1,1.24-2.4A4.9,4.9,0,0,1,119.843,144.134Zm5.016,4.578a3.527,3.527,0,0,0-.837-1.577,2.74,2.74,0,0,0-1.333-.8,2.891,2.891,0,0,0-2.806.732,2.908,2.908,0,0,0-.754,1.361,3.5,3.5,0,0,0,.059,1.765,3.722,3.722,0,0,0,.842,1.6,3.073,3.073,0,0,0,1.338.822,2.8,2.8,0,0,0,1.5.014,2.955,2.955,0,0,0,1.312-.745,2.914,2.914,0,0,0,.753-1.362A3.647,3.647,0,0,0,124.859,148.712Zm15.252-4.336a6.533,6.533,0,0,1,.2,1.064l-7.824,2.1a2.756,2.756,0,0,0,1.3,1.6,2.588,2.588,0,0,0,1.934.186,2.286,2.286,0,0,0,1.8-1.869l2.917-.781a5.1,5.1,0,0,1-1.094,3.026,5.413,5.413,0,0,1-2.962,1.85,5.9,5.9,0,0,1-2.963.069,5.15,5.15,0,0,1-2.436-1.439,6.827,6.827,0,0,1-1.558-5.815,4.884,4.884,0,0,1,1.376-2.439,5.871,5.871,0,0,1,2.62-1.427,5.774,5.774,0,0,1,2.9-.073,4.7,4.7,0,0,1,2.376,1.372A5.72,5.72,0,0,1,140.111,144.376Zm-3.008-.022a2.189,2.189,0,0,0-1.2-1.459,2.735,2.735,0,0,0-1.967-.156,2.556,2.556,0,0,0-1.535,1.073,2.757,2.757,0,0,0-.38,1.9Zm16.86-9.342a4.4,4.4,0,0,1,3.495.368,4.66,4.66,0,0,1,2.117,3.036l1.683,6.278-2.705.725-1.584-5.912a2.73,2.73,0,0,0-1.15-1.741,2.358,2.358,0,0,0-1.92-.211,2.423,2.423,0,0,0-1.577,1.148,2.735,2.735,0,0,0-.125,2.083l1.584,5.911-2.7.725-1.584-5.911a2.733,2.733,0,0,0-1.15-1.742,2.354,2.354,0,0,0-1.92-.21,2.445,2.445,0,0,0-1.6,1.152,2.731,2.731,0,0,0-.125,2.083l1.584,5.912-2.705.725-2.868-10.7,2.705-.725.347,1.295a3.749,3.749,0,0,1,1.048-1.42,4.4,4.4,0,0,1,1.713-.873,4.736,4.736,0,0,1,2.385-.059,3.784,3.784,0,0,1,1.93,1.1,4.031,4.031,0,0,1,1.109-1.891A4.517,4.517,0,0,1,153.963,135.012Zm18.314.746a6.523,6.523,0,0,1,.2,1.063l-7.824,2.1a2.76,2.76,0,0,0,1.3,1.6,2.584,2.584,0,0,0,1.934.186,2.286,2.286,0,0,0,1.8-1.869l2.917-.781a5.1,5.1,0,0,1-1.094,3.026,5.413,5.413,0,0,1-2.962,1.85,5.9,5.9,0,0,1-2.963.069,5.15,5.15,0,0,1-2.436-1.439,6.825,6.825,0,0,1-1.558-5.815,4.884,4.884,0,0,1,1.376-2.439,5.877,5.877,0,0,1,2.62-1.427,5.774,5.774,0,0,1,2.9-.073,4.693,4.693,0,0,1,2.376,1.372A5.709,5.709,0,0,1,172.277,135.758Zm-3.008-.023a2.189,2.189,0,0,0-1.2-1.459,2.735,2.735,0,0,0-1.967-.156,2.548,2.548,0,0,0-1.534,1.074,2.749,2.749,0,0,0-.381,1.9Zm9.5-7.369a4.251,4.251,0,0,1,3.417.388,4.749,4.749,0,0,1,2.079,3.046l1.682,6.279-2.7.724-1.584-5.911a2.841,2.841,0,0,0-1.16-1.781,2.323,2.323,0,0,0-1.925-.229,2.408,2.408,0,0,0-1.591,1.172,2.83,2.83,0,0,0-.115,2.122l1.584,5.911-2.705.725-2.867-10.7,2.7-.724.357,1.332a3.8,3.8,0,0,1,1.082-1.449A4.394,4.394,0,0,1,178.769,128.366Zm10.627-.3,1.387,5.177a1.121,1.121,0,0,0,.464.725,1.41,1.41,0,0,0,.95-.006l1.256-.337.611,2.28-1.7.455q-3.42.917-4.31-2.406l-1.382-5.158-1.275.341-.6-2.221,1.275-.342-.709-2.647,2.723-.729.71,2.646,2.4-.642.6,2.222Z" fill="#fff"/>
  </g>
</svg>
