<svg xmlns="http://www.w3.org/2000/svg" width="194.029" height="180.106" viewBox="0 0 194.029 180.106">
  <g id="Group_22101" data-name="Group 22101" transform="translate(-36.125 -50.048)">
    <path id="Path_17945" data-name="Path 17945" d="M216.231,183.187A97,97,0,0,0,183.187,50.048L50.048,83.092a97,97,0,0,0,166.183,100.1Z" fill="#43aa8b"/>
    <path id="Path_17946" data-name="Path 17946" d="M183.186,50.048A97,97,0,0,1,50.047,83.092Z" fill="rgba(0,0,0,0.2)"/>
    <path id="Path_17947" data-name="Path 17947" d="M120.951,121.12l-9.24,11.651-3.228-1.066L108,116.843l2.849.941.166,11.744,7.108-9.342Zm2.453,2.453a1.758,1.758,0,0,1-1.033-.825,1.6,1.6,0,0,1-.086-1.271,1.538,1.538,0,0,1,.819-.951,1.717,1.717,0,0,1,1.328-.067,1.648,1.648,0,0,1,1.008.838,1.5,1.5,0,0,1,.111,1.258,1.572,1.572,0,0,1-.844.964A1.691,1.691,0,0,1,123.4,123.573Zm.9,1.686-3.474,10.522-2.659-.878,3.475-10.521Zm3.123,12.89a5.974,5.974,0,0,1-2.167-1.221,4.491,4.491,0,0,1-1.213-1.812,3.412,3.412,0,0,1-.062-1.98l2.678.885a1.544,1.544,0,0,0,.256,1.2,2.233,2.233,0,0,0,1.179.831,2.076,2.076,0,0,0,1.277.085.963.963,0,0,0,.694-.634.844.844,0,0,0-.281-.935,9.236,9.236,0,0,0-1.464-1.116,15.248,15.248,0,0,1-1.742-1.228,3.639,3.639,0,0,1-.985-1.357A2.666,2.666,0,0,1,125.62,129a2.907,2.907,0,0,1,1.02-1.432,3.64,3.64,0,0,1,1.82-.663,5.763,5.763,0,0,1,2.36.316,4.726,4.726,0,0,1,2.687,1.94,3.633,3.633,0,0,1,.4,2.934l-2.544-.841a1.406,1.406,0,0,0-.206-1.163,1.967,1.967,0,0,0-1.109-.787,2.109,2.109,0,0,0-1.208-.1.9.9,0,0,0-.625.615.938.938,0,0,0,.262.992,9.237,9.237,0,0,0,1.471,1.1,14.646,14.646,0,0,1,1.685,1.21,3.375,3.375,0,0,1,.959,1.37,2.649,2.649,0,0,1,.018,1.859,2.9,2.9,0,0,1-1.052,1.464,3.489,3.489,0,0,1-1.82.663A5.817,5.817,0,0,1,127.423,138.149Zm19.786-5.325-3.475,10.521-2.677-.884.439-1.329a3.768,3.768,0,0,1-1.706.637,4.415,4.415,0,0,1-1.911-.21,4.772,4.772,0,0,1-2.015-1.234,4.02,4.02,0,0,1-.992-2.033,5.5,5.5,0,0,1,.271-2.607l2.038-6.172,2.659.878-1.913,5.792a2.912,2.912,0,0,0-.013,2.144,2.691,2.691,0,0,0,3.438,1.135,2.908,2.908,0,0,0,1.266-1.73l1.913-5.792Zm.215,5.863a6.49,6.49,0,0,1,1.561-2.623,5.01,5.01,0,0,1,2.355-1.328,4.89,4.89,0,0,1,2.669.144,4.455,4.455,0,0,1,1.9,1.152,4.39,4.39,0,0,1,1.029,1.667l.495-1.5,2.678.884L156.632,147.6l-2.678-.884.508-1.538a4.233,4.233,0,0,1-1.832.764,4.578,4.578,0,0,1-2.227-.209,4.765,4.765,0,0,1-2.205-1.486,5.157,5.157,0,0,1-1.1-2.489A6.669,6.669,0,0,1,147.424,138.687Zm8.267,2.772a3.519,3.519,0,0,0,.166-1.777,2.729,2.729,0,0,0-.674-1.4,2.892,2.892,0,0,0-2.748-.929,2.911,2.911,0,0,0-1.376.725,3.487,3.487,0,0,0-.92,1.508,3.73,3.73,0,0,0-.172,1.8,3.08,3.08,0,0,0,.668,1.421,2.8,2.8,0,0,0,1.242.831,2.952,2.952,0,0,0,1.506.1,2.913,2.913,0,0,0,1.377-.725A3.646,3.646,0,0,0,155.691,141.459Zm10.837-6.173-4.64,14.054-2.659-.878,4.64-14.054ZM101,146.125a8.274,8.274,0,0,1,3.395,2.027,6.046,6.046,0,0,1,1.679,3.145,7.817,7.817,0,0,1-2.308,6.988,6.114,6.114,0,0,1-3.209,1.489,8.266,8.266,0,0,1-3.935-.393l-4.634-1.531,4.377-13.256Zm-3.726,10.964a4.8,4.8,0,0,0,5.73-6.511,4.512,4.512,0,0,0-2.839-2.244l-1.88-.621-2.891,8.755Zm19.92,3a6.545,6.545,0,0,1-.414,1l-7.692-2.54a2.76,2.76,0,0,0,.208,2.049,2.591,2.591,0,0,0,1.515,1.216,2.288,2.288,0,0,0,2.529-.576l2.867.947a5.091,5.091,0,0,1-2.575,1.93,5.409,5.409,0,0,1-3.491-.079,5.894,5.894,0,0,1-2.515-1.568,5.15,5.15,0,0,1-1.247-2.539,6.819,6.819,0,0,1,1.888-5.716,4.88,4.88,0,0,1,2.488-1.285,5.877,5.877,0,0,1,2.973.245,5.766,5.766,0,0,1,2.465,1.53,4.694,4.694,0,0,1,1.233,2.451A5.712,5.712,0,0,1,117.191,160.087Zm-2.5-1.669a2.188,2.188,0,0,0-.2-1.878,2.737,2.737,0,0,0-1.559-1.21,2.555,2.555,0,0,0-1.872.056,2.748,2.748,0,0,0-1.362,1.382Zm6.6,9.3a5.961,5.961,0,0,1-2.166-1.221,4.481,4.481,0,0,1-1.213-1.812,3.413,3.413,0,0,1-.063-1.98l2.678.885a1.544,1.544,0,0,0,.257,1.2,2.227,2.227,0,0,0,1.178.831,2.079,2.079,0,0,0,1.278.085.964.964,0,0,0,.694-.634.847.847,0,0,0-.281-.936,9.307,9.307,0,0,0-1.464-1.115,15.361,15.361,0,0,1-1.743-1.228,3.625,3.625,0,0,1-.984-1.357,2.665,2.665,0,0,1,.026-1.866,2.915,2.915,0,0,1,1.021-1.432,3.636,3.636,0,0,1,1.82-.663,5.765,5.765,0,0,1,2.36.316,4.726,4.726,0,0,1,2.687,1.94,3.637,3.637,0,0,1,.4,2.934l-2.545-.841a1.406,1.406,0,0,0-.2-1.163,1.971,1.971,0,0,0-1.109-.787,2.112,2.112,0,0,0-1.209-.1.9.9,0,0,0-.624.615.936.936,0,0,0,.262.992,9.265,9.265,0,0,0,1.47,1.1,14.761,14.761,0,0,1,1.686,1.21,3.375,3.375,0,0,1,.959,1.37,2.649,2.649,0,0,1,.018,1.859,2.9,2.9,0,0,1-1.052,1.464,3.489,3.489,0,0,1-1.82.663A5.824,5.824,0,0,1,121.289,167.717ZM132.9,158.3a1.763,1.763,0,0,1-1.033-.826,1.6,1.6,0,0,1-.086-1.271,1.536,1.536,0,0,1,.82-.951,1.723,1.723,0,0,1,1.327-.067,1.653,1.653,0,0,1,1.008.839,1.507,1.507,0,0,1,.112,1.258,1.576,1.576,0,0,1-.845.964A1.691,1.691,0,0,1,132.9,158.3Zm.9,1.686-3.475,10.521-2.659-.878,3.475-10.521Zm6.8,2.058a4.566,4.566,0,0,1,1.913,1.158,3.932,3.932,0,0,1,1.011,1.66l.495-1.5,2.678.884-3.5,10.6a5.877,5.877,0,0,1-1.447,2.408,4.527,4.527,0,0,1-2.369,1.24,5.883,5.883,0,0,1-3.074-.257,6.457,6.457,0,0,1-3.34-2.261,4.088,4.088,0,0,1-.673-3.382l2.64.872a2.036,2.036,0,0,0,.516,1.434A3.31,3.31,0,0,0,137,175.9a2.716,2.716,0,0,0,2.112-.082,2.9,2.9,0,0,0,1.412-1.851l.539-1.633a4.226,4.226,0,0,1-1.832.764,4.383,4.383,0,0,1-2.214-.183,4.767,4.767,0,0,1-2.205-1.487,5.1,5.1,0,0,1-1.114-2.495,6.67,6.67,0,0,1,.32-3.075,6.5,6.5,0,0,1,1.561-2.622,5.006,5.006,0,0,1,2.356-1.329A4.9,4.9,0,0,1,140.606,162.048Zm1.682,6.579a3.546,3.546,0,0,0,.166-1.778,2.742,2.742,0,0,0-.675-1.4,2.887,2.887,0,0,0-2.747-.928,2.917,2.917,0,0,0-1.377.724,3.492,3.492,0,0,0-.919,1.508,3.73,3.73,0,0,0-.172,1.8,3.07,3.07,0,0,0,.668,1.421,2.792,2.792,0,0,0,1.242.831,2.938,2.938,0,0,0,1.505.1,2.9,2.9,0,0,0,1.377-.725A3.643,3.643,0,0,0,142.288,168.627Zm12.892-1.746a4.255,4.255,0,0,1,2.644,2.2,4.752,4.752,0,0,1,.067,3.687l-2.038,6.172-2.659-.878,1.919-5.811a2.837,2.837,0,0,0,.007-2.125,2.321,2.321,0,0,0-1.484-1.248,2.411,2.411,0,0,0-1.973.106,2.84,2.84,0,0,0-1.26,1.712l-1.919,5.811-2.659-.878,3.475-10.521,2.658.878-.432,1.31a3.785,3.785,0,0,1,1.7-.618A4.4,4.4,0,0,1,155.18,166.881Z" fill="#fff"/>
  </g>
</svg>
