<svg xmlns="http://www.w3.org/2000/svg" width="194.052" height="188.023" viewBox="0 0 194.052 188.023">
  <g id="Group_22099" data-name="Group 22099" transform="translate(18.435 -33.594)">
    <path id="Path_17939" data-name="Path 17939" d="M112.185,215.588A97,97,0,0,0,169.588,91L45,33.594a97,97,0,0,0,67.188,181.994Z" fill="#ff5a5d"/>
    <path id="Path_17940" data-name="Path 17940" d="M169.587,91A97,97,0,0,1,45,33.594Z" fill="rgba(0,0,0,0.2)"/>
    <path id="Path_17941" data-name="Path 17941" d="M50.529,131.071a4.282,4.282,0,0,1,.221,2.157,3.82,3.82,0,0,1-1.01,2.057,5.973,5.973,0,0,1-2.456,1.546l-2.2.811,1.856,5.028-2.627.97-4.835-13.1,4.822-1.781a6.212,6.212,0,0,1,2.783-.43,3.836,3.836,0,0,1,2.128.856A4.274,4.274,0,0,1,50.529,131.071Zm-4.141,3.682a2.457,2.457,0,0,0,1.434-1.084,1.986,1.986,0,0,0,.006-1.6q-.707-1.914-2.845-1.124l-2.083.769,1.406,3.809Zm8.73-5.078a3.823,3.823,0,0,1,2.538-2.941l1.018,2.758-.694.256a2.326,2.326,0,0,0-1.533,3.529l1.912,5.179-2.627.969L51.9,129.031l2.627-.97ZM68,135.09a5.91,5.91,0,0,1-2.944.341,5.247,5.247,0,0,1-2.595-1.2,6.079,6.079,0,0,1-1.715-2.565,5.956,5.956,0,0,1-.345-3.07,5.21,5.21,0,0,1,1.24-2.59A6.2,6.2,0,0,1,67.079,124a5.081,5.081,0,0,1,2.606,1.17,5.837,5.837,0,0,1,1.752,2.551,5.72,5.72,0,0,1,.307,3.085,5.315,5.315,0,0,1-1.252,2.615A6.058,6.058,0,0,1,68,135.09Zm-.845-2.289a2.911,2.911,0,0,0,1.207-.83,2.732,2.732,0,0,0,.625-1.424,3.74,3.74,0,0,0-.248-1.827,3.277,3.277,0,0,0-1.626-1.98,2.8,2.8,0,0,0-3.79,1.4,3.377,3.377,0,0,0,.088,2.548,3.508,3.508,0,0,0,1.577,2.019A2.65,2.65,0,0,0,67.151,132.8Zm5.524-5.578a6.494,6.494,0,0,1-.413-3.024,4.955,4.955,0,0,1,1.033-2.514,4.9,4.9,0,0,1,2.178-1.55,4.615,4.615,0,0,1,2.1-.263,4.029,4.029,0,0,1,1.893.623l-1.822-4.935,2.664-.983,5.126,13.884-2.664.983-.568-1.538a3.8,3.8,0,0,1-.912,1.744,4.587,4.587,0,0,1-1.872,1.224,4.765,4.765,0,0,1-2.651.211,5.1,5.1,0,0,1-2.426-1.258A6.661,6.661,0,0,1,72.675,127.223Zm8.194-2.983a3.534,3.534,0,0,0-.978-1.494,2.734,2.734,0,0,0-1.4-.676,2.89,2.89,0,0,0-2.727.985,2.914,2.914,0,0,0-.625,1.425,3.487,3.487,0,0,0,.22,1.752,3.723,3.723,0,0,0,.985,1.513,3.07,3.07,0,0,0,1.408.695,2.8,2.8,0,0,0,1.489-.123,2.95,2.95,0,0,0,1.238-.862,2.916,2.916,0,0,0,.625-1.425A3.652,3.652,0,0,0,80.869,124.24Zm13.1-10.743,3.837,10.394-2.645.977-.485-1.314a3.759,3.759,0,0,1-.937,1.561,4.407,4.407,0,0,1-1.625,1.027,4.765,4.765,0,0,1-2.345.29,4.027,4.027,0,0,1-2.043-.973,5.494,5.494,0,0,1-1.412-2.207l-2.251-6.1,2.627-.97,2.113,5.723a2.912,2.912,0,0,0,1.326,1.685,2.358,2.358,0,0,0,1.931.033,2.382,2.382,0,0,0,1.465-1.287,2.91,2.91,0,0,0-.087-2.142l-2.113-5.723Zm3.835,4.489a6.153,6.153,0,0,1-.382-3.056,4.925,4.925,0,0,1,1.127-2.549,5.56,5.56,0,0,1,2.415-1.659,5.383,5.383,0,0,1,3.549-.2,4.936,4.936,0,0,1,2.705,2.071l-2.833,1.046a2.133,2.133,0,0,0-1.157-.767,2.271,2.271,0,0,0-1.459.091,2.3,2.3,0,0,0-1.477,1.484,3.8,3.8,0,0,0,.195,2.55A3.86,3.86,0,0,0,102,119.061a2.32,2.32,0,0,0,2.08.149,2.124,2.124,0,0,0,1.556-2.195l2.833-1.046a5.111,5.111,0,0,1-.717,3.314,5.365,5.365,0,0,1-2.822,2.171,5.667,5.667,0,0,1-2.907.327,5.088,5.088,0,0,1-2.513-1.2A6.27,6.27,0,0,1,97.809,117.986Zm13.9-8.584,1.856,5.028a1.124,1.124,0,0,0,.528.679,1.412,1.412,0,0,0,.947-.093l1.219-.451.817,2.214-1.651.61q-3.321,1.226-4.512-2l-1.849-5.01-1.239.457-.8-2.157,1.238-.457-.949-2.571,2.646-.976.949,2.57,2.326-.859.8,2.158ZM55.029,156.783l.783,2.121-3.49,1.288,4.052,10.976-2.627.97L49.7,161.162l-3.49,1.288-.783-2.12Zm8.712-.317a4.443,4.443,0,0,1,2.3-.25,3.667,3.667,0,0,1,1.987.993,5.422,5.422,0,0,1,1.412,2.208l2.251,6.1-2.627.969-2.119-5.741a2.835,2.835,0,0,0-1.319-1.666,2.321,2.321,0,0,0-1.938-.052,2.411,2.411,0,0,0-1.477,1.312,2.837,2.837,0,0,0,.08,2.124l2.119,5.741-2.627.97-5.126-13.884,2.627-.97,1.766,4.785a3.573,3.573,0,0,1,.963-1.55A4.679,4.679,0,0,1,63.741,156.466Zm7.481-4a1.763,1.763,0,0,1-1.323,0,1.6,1.6,0,0,1-.859-.941,1.538,1.538,0,0,1,.049-1.254,1.721,1.721,0,0,1,1-.88,1.654,1.654,0,0,1,1.311.028,1.508,1.508,0,0,1,.871.915,1.571,1.571,0,0,1-.06,1.28A1.691,1.691,0,0,1,71.222,152.468Zm1.752.761,3.837,10.394-2.627.97-3.837-10.4Zm8.3-3.235a4.251,4.251,0,0,1,3.438.074,4.747,4.747,0,0,1,2.35,2.842l2.251,6.1-2.627.97-2.12-5.741a2.832,2.832,0,0,0-1.319-1.666,2.318,2.318,0,0,0-1.938-.052,2.408,2.408,0,0,0-1.477,1.312,2.836,2.836,0,0,0,.08,2.124l2.12,5.741-2.627.97L75.569,152.27,78.2,151.3l.478,1.294a3.8,3.8,0,0,1,.944-1.542A4.395,4.395,0,0,1,81.274,149.994Zm16.691,5.819L92.8,152.688l1.635,4.428-2.627.969L86.685,144.2l2.627-.969,2.916,7.9,1.862-5.7,3.415-1.261-2.652,6.906,6.528,3.475Zm1.84-13.9a1.763,1.763,0,0,1-1.322,0,1.605,1.605,0,0,1-.859-.941,1.538,1.538,0,0,1,.049-1.254,1.721,1.721,0,0,1,1-.88,1.649,1.649,0,0,1,1.311.028,1.509,1.509,0,0,1,.871.915,1.574,1.574,0,0,1-.06,1.28A1.7,1.7,0,0,1,99.805,141.916Zm1.752.76,3.837,10.4-2.626.969L98.93,143.646Zm8.3-3.234a4.25,4.25,0,0,1,3.438.073,4.75,4.75,0,0,1,2.35,2.842l2.251,6.1-2.627.97-2.119-5.741a2.84,2.84,0,0,0-1.319-1.667,2.321,2.321,0,0,0-1.938-.052,2.413,2.413,0,0,0-1.477,1.313,2.834,2.834,0,0,0,.081,2.123l2.119,5.742-2.626.969-3.838-10.394,2.627-.97.478,1.295a3.792,3.792,0,0,1,.944-1.542A4.4,4.4,0,0,1,109.857,139.442Zm10.709-3.975a4.56,4.56,0,0,1,2.218-.286,3.931,3.931,0,0,1,1.825.669l-.547-1.482,2.645-.977,3.865,10.47a5.872,5.872,0,0,1,.367,2.785,4.525,4.525,0,0,1-1.08,2.445,5.879,5.879,0,0,1-2.565,1.715,6.451,6.451,0,0,1-4.02.312,4.091,4.091,0,0,1-2.634-2.226l2.608-.963a2.036,2.036,0,0,0,1.3.8,3.3,3.3,0,0,0,1.829-.185,2.717,2.717,0,0,0,1.6-1.38,2.9,2.9,0,0,0-.049-2.327l-.6-1.613a4.243,4.243,0,0,1-.957,1.739,4.394,4.394,0,0,1-1.846,1.236,4.766,4.766,0,0,1-2.651.211,5.107,5.107,0,0,1-2.426-1.258,6.674,6.674,0,0,1-1.665-2.6,6.488,6.488,0,0,1-.413-3.024,5,5,0,0,1,1.015-2.507A4.9,4.9,0,0,1,120.566,135.467Zm5.414,4.1a3.524,3.524,0,0,0-.978-1.494,2.734,2.734,0,0,0-1.4-.676,2.889,2.889,0,0,0-2.727.985,2.907,2.907,0,0,0-.625,1.425,3.486,3.486,0,0,0,.22,1.752,3.72,3.72,0,0,0,.985,1.513,3.068,3.068,0,0,0,1.408.695,2.8,2.8,0,0,0,1.489-.123,2.945,2.945,0,0,0,1.238-.862,2.907,2.907,0,0,0,.625-1.425A3.638,3.638,0,0,0,125.98,139.565Z" fill="#fff"/>
  </g>
</svg>
