<svg width="194" height="194" viewBox="0 0 194 194" fill="none" xmlns="http://www.w3.org/2000/svg">
<path d="M97 194C150.572 194 194 150.572 194 97L97 0C43.4284 0 0 43.4284 0 97C0 150.572 43.4284 194 97 194Z" fill="#43AA8B"/>
<path d="M194 97C140.428 97 97 53.5716 97 0L194 97Z" fill="black" fill-opacity="0.2"/>
<path d="M61.4314 88.36C61.4314 89.1067 61.2514 89.8067 60.8914 90.46C60.5448 91.1133 59.9914 91.64 59.2314 92.04C58.4848 92.44 57.5381 92.64 56.3914 92.64H54.0514V98H51.2514V84.04H56.3914C57.4714 84.04 58.3914 84.2267 59.1514 84.6C59.9114 84.9733 60.4781 85.4867 60.8514 86.14C61.2381 86.7933 61.4314 87.5333 61.4314 88.36ZM56.2714 90.38C57.0448 90.38 57.6181 90.2067 57.9914 89.86C58.3648 89.5 58.5514 89 58.5514 88.36C58.5514 87 57.7914 86.32 56.2714 86.32H54.0514V90.38H56.2714ZM66.2194 88.64C66.5794 88.0533 67.0461 87.5933 67.6194 87.26C68.2061 86.9267 68.8728 86.76 69.6194 86.76V89.7H68.8794C67.9994 89.7 67.3328 89.9067 66.8794 90.32C66.4394 90.7333 66.2194 91.4533 66.2194 92.48V98H63.4194V86.92H66.2194V88.64ZM76.4254 98.18C75.3587 98.18 74.3987 97.9467 73.5454 97.48C72.692 97 72.0187 96.3267 71.5254 95.46C71.0454 94.5933 70.8054 93.5933 70.8054 92.46C70.8054 91.3267 71.052 90.3267 71.5454 89.46C72.052 88.5933 72.7387 87.9267 73.6054 87.46C74.472 86.98 75.4387 86.74 76.5054 86.74C77.572 86.74 78.5387 86.98 79.4054 87.46C80.272 87.9267 80.952 88.5933 81.4454 89.46C81.952 90.3267 82.2054 91.3267 82.2054 92.46C82.2054 93.5933 81.9454 94.5933 81.4254 95.46C80.9187 96.3267 80.2254 97 79.3454 97.48C78.4787 97.9467 77.5054 98.18 76.4254 98.18ZM76.4254 95.74C76.932 95.74 77.4054 95.62 77.8454 95.38C78.2987 95.1267 78.6587 94.7533 78.9254 94.26C79.192 93.7667 79.3254 93.1667 79.3254 92.46C79.3254 91.4067 79.0454 90.6 78.4854 90.04C77.9387 89.4667 77.2654 89.18 76.4654 89.18C75.6654 89.18 74.992 89.4667 74.4454 90.04C73.912 90.6 73.6454 91.4067 73.6454 92.46C73.6454 93.5133 73.9054 94.3267 74.4254 94.9C74.9587 95.46 75.6254 95.74 76.4254 95.74ZM83.5393 92.42C83.5393 91.3 83.7593 90.3067 84.1993 89.44C84.6526 88.5733 85.2659 87.9067 86.0393 87.44C86.8126 86.9733 87.6726 86.74 88.6193 86.74C89.3393 86.74 90.0259 86.9 90.6793 87.22C91.3326 87.5267 91.8526 87.94 92.2393 88.46V83.2H95.0793V98H92.2393V96.36C91.8926 96.9067 91.4059 97.3467 90.7793 97.68C90.1526 98.0133 89.4259 98.18 88.5993 98.18C87.6659 98.18 86.8126 97.94 86.0393 97.46C85.2659 96.98 84.6526 96.3067 84.1993 95.44C83.7593 94.56 83.5393 93.5533 83.5393 92.42ZM92.2593 92.46C92.2593 91.78 92.1259 91.2 91.8593 90.72C91.5926 90.2267 91.2326 89.8533 90.7793 89.6C90.3259 89.3333 89.8393 89.2 89.3193 89.2C88.7993 89.2 88.3193 89.3267 87.8793 89.58C87.4393 89.8333 87.0793 90.2067 86.7993 90.7C86.5326 91.18 86.3993 91.7533 86.3993 92.42C86.3993 93.0867 86.5326 93.6733 86.7993 94.18C87.0793 94.6733 87.4393 95.0533 87.8793 95.32C88.3326 95.5867 88.8126 95.72 89.3193 95.72C89.8393 95.72 90.3259 95.5933 90.7793 95.34C91.2326 95.0733 91.5926 94.7 91.8593 94.22C92.1259 93.7267 92.2593 93.14 92.2593 92.46ZM108.274 86.92V98H105.454V96.6C105.094 97.08 104.621 97.46 104.034 97.74C103.461 98.0067 102.834 98.14 102.154 98.14C101.287 98.14 100.521 97.96 99.8539 97.6C99.1873 97.2267 98.6606 96.6867 98.2739 95.98C97.9006 95.26 97.7139 94.4067 97.7139 93.42V86.92H100.514V93.02C100.514 93.9 100.734 94.58 101.174 95.06C101.614 95.5267 102.214 95.76 102.974 95.76C103.747 95.76 104.354 95.5267 104.794 95.06C105.234 94.58 105.454 93.9 105.454 93.02V86.92H108.274ZM110.317 92.46C110.317 91.3133 110.55 90.3133 111.017 89.46C111.483 88.5933 112.13 87.9267 112.957 87.46C113.783 86.98 114.73 86.74 115.797 86.74C117.17 86.74 118.303 87.0867 119.197 87.78C120.103 88.46 120.71 89.42 121.017 90.66H117.997C117.837 90.18 117.563 89.8067 117.177 89.54C116.803 89.26 116.337 89.12 115.777 89.12C114.977 89.12 114.343 89.4133 113.877 90C113.41 90.5733 113.177 91.3933 113.177 92.46C113.177 93.5133 113.41 94.3333 113.877 94.92C114.343 95.4933 114.977 95.78 115.777 95.78C116.91 95.78 117.65 95.2733 117.997 94.26H121.017C120.71 95.46 120.103 96.4133 119.197 97.12C118.29 97.8267 117.157 98.18 115.797 98.18C114.73 98.18 113.783 97.9467 112.957 97.48C112.13 97 111.483 96.3333 111.017 95.48C110.55 94.6133 110.317 93.6067 110.317 92.46ZM126.328 89.22V94.58C126.328 94.9533 126.415 95.2267 126.588 95.4C126.775 95.56 127.081 95.64 127.508 95.64H128.808V98H127.048C124.688 98 123.508 96.8533 123.508 94.56V89.22H122.188V86.92H123.508V84.18H126.328V86.92H128.808V89.22H126.328ZM52.1847 128.14C51.2114 128.14 50.3314 127.973 49.5447 127.64C48.7714 127.307 48.1581 126.827 47.7047 126.2C47.2514 125.573 47.0181 124.833 47.0047 123.98H50.0047C50.0447 124.553 50.2447 125.007 50.6047 125.34C50.9781 125.673 51.4847 125.84 52.1247 125.84C52.7781 125.84 53.2914 125.687 53.6647 125.38C54.0381 125.06 54.2247 124.647 54.2247 124.14C54.2247 123.727 54.0981 123.387 53.8447 123.12C53.5914 122.853 53.2714 122.647 52.8847 122.5C52.5114 122.34 51.9914 122.167 51.3247 121.98C50.4181 121.713 49.6781 121.453 49.1047 121.2C48.5447 120.933 48.0581 120.54 47.6447 120.02C47.2447 119.487 47.0447 118.78 47.0447 117.9C47.0447 117.073 47.2514 116.353 47.6647 115.74C48.0781 115.127 48.6581 114.66 49.4047 114.34C50.1514 114.007 51.0047 113.84 51.9647 113.84C53.4047 113.84 54.5714 114.193 55.4647 114.9C56.3714 115.593 56.8714 116.567 56.9647 117.82H53.8847C53.8581 117.34 53.6514 116.947 53.2647 116.64C52.8914 116.32 52.3914 116.16 51.7647 116.16C51.2181 116.16 50.7781 116.3 50.4447 116.58C50.1247 116.86 49.9647 117.267 49.9647 117.8C49.9647 118.173 50.0847 118.487 50.3247 118.74C50.5781 118.98 50.8847 119.18 51.2447 119.34C51.6181 119.487 52.1381 119.66 52.8047 119.86C53.7114 120.127 54.4514 120.393 55.0247 120.66C55.5981 120.927 56.0914 121.327 56.5047 121.86C56.9181 122.393 57.1247 123.093 57.1247 123.96C57.1247 124.707 56.9314 125.4 56.5447 126.04C56.1581 126.68 55.5914 127.193 54.8447 127.58C54.0981 127.953 53.2114 128.14 52.1847 128.14ZM62.8122 119.22V124.58C62.8122 124.953 62.8989 125.227 63.0722 125.4C63.2589 125.56 63.5656 125.64 63.9922 125.64H65.2922V128H63.5322C61.1722 128 59.9922 126.853 59.9922 124.56V119.22H58.6722V116.92H59.9922V114.18H62.8122V116.92H65.2922V119.22H62.8122ZM70.1061 118.64C70.4661 118.053 70.9328 117.593 71.5061 117.26C72.0928 116.927 72.7595 116.76 73.5061 116.76V119.7H72.7661C71.8861 119.7 71.2195 119.907 70.7661 120.32C70.3261 120.733 70.1061 121.453 70.1061 122.48V128H67.3061V116.92H70.1061V118.64ZM74.6721 122.42C74.6721 121.3 74.8921 120.307 75.3321 119.44C75.7854 118.573 76.3921 117.907 77.1521 117.44C77.9254 116.973 78.7854 116.74 79.7321 116.74C80.5587 116.74 81.2787 116.907 81.8921 117.24C82.5187 117.573 83.0187 117.993 83.3921 118.5V116.92H86.2121V128H83.3921V126.38C83.0321 126.9 82.5321 127.333 81.8921 127.68C81.2654 128.013 80.5387 128.18 79.7121 128.18C78.7787 128.18 77.9254 127.94 77.1521 127.46C76.3921 126.98 75.7854 126.307 75.3321 125.44C74.8921 124.56 74.6721 123.553 74.6721 122.42ZM83.3921 122.46C83.3921 121.78 83.2587 121.2 82.9921 120.72C82.7254 120.227 82.3654 119.853 81.9121 119.6C81.4587 119.333 80.9721 119.2 80.4521 119.2C79.9321 119.2 79.4521 119.327 79.0121 119.58C78.5721 119.833 78.2121 120.207 77.9321 120.7C77.6654 121.18 77.5321 121.753 77.5321 122.42C77.5321 123.087 77.6654 123.673 77.9321 124.18C78.2121 124.673 78.5721 125.053 79.0121 125.32C79.4654 125.587 79.9454 125.72 80.4521 125.72C80.9721 125.72 81.4587 125.593 81.9121 125.34C82.3654 125.073 82.7254 124.7 82.9921 124.22C83.2587 123.727 83.3921 123.14 83.3921 122.46ZM92.2068 119.22V124.58C92.2068 124.953 92.2934 125.227 92.4668 125.4C92.6534 125.56 92.9601 125.64 93.3868 125.64H94.6868V128H92.9268C90.5668 128 89.3868 126.853 89.3868 124.56V119.22H88.0668V116.92H89.3868V114.18H92.2068V116.92H94.6868V119.22H92.2068ZM107.001 122.22C107.001 122.62 106.974 122.98 106.921 123.3H98.8207C98.8873 124.1 99.1673 124.727 99.6607 125.18C100.154 125.633 100.761 125.86 101.481 125.86C102.521 125.86 103.261 125.413 103.701 124.52H106.721C106.401 125.587 105.787 126.467 104.881 127.16C103.974 127.84 102.861 128.18 101.541 128.18C100.474 128.18 99.514 127.947 98.6607 127.48C97.8207 127 97.1607 126.327 96.6807 125.46C96.214 124.593 95.9807 123.593 95.9807 122.46C95.9807 121.313 96.214 120.307 96.6807 119.44C97.1473 118.573 97.8007 117.907 98.6407 117.44C99.4807 116.973 100.447 116.74 101.541 116.74C102.594 116.74 103.534 116.967 104.361 117.42C105.201 117.873 105.847 118.52 106.301 119.36C106.767 120.187 107.001 121.14 107.001 122.22ZM104.101 121.42C104.087 120.7 103.827 120.127 103.321 119.7C102.814 119.26 102.194 119.04 101.461 119.04C100.767 119.04 100.181 119.253 99.7007 119.68C99.234 120.093 98.9473 120.673 98.8407 121.42H104.101ZM113.384 116.74C114.211 116.74 114.938 116.907 115.564 117.24C116.191 117.56 116.684 117.98 117.044 118.5V116.92H119.864V128.08C119.864 129.107 119.658 130.02 119.244 130.82C118.831 131.633 118.211 132.273 117.384 132.74C116.558 133.22 115.558 133.46 114.384 133.46C112.811 133.46 111.518 133.093 110.504 132.36C109.504 131.627 108.938 130.627 108.804 129.36H111.584C111.731 129.867 112.044 130.267 112.524 130.56C113.018 130.867 113.611 131.02 114.304 131.02C115.118 131.02 115.778 130.773 116.284 130.28C116.791 129.8 117.044 129.067 117.044 128.08V126.36C116.684 126.88 116.184 127.313 115.544 127.66C114.918 128.007 114.198 128.18 113.384 128.18C112.451 128.18 111.598 127.94 110.824 127.46C110.051 126.98 109.438 126.307 108.984 125.44C108.544 124.56 108.324 123.553 108.324 122.42C108.324 121.3 108.544 120.307 108.984 119.44C109.438 118.573 110.044 117.907 110.804 117.44C111.578 116.973 112.438 116.74 113.384 116.74ZM117.044 122.46C117.044 121.78 116.911 121.2 116.644 120.72C116.378 120.227 116.018 119.853 115.564 119.6C115.111 119.333 114.624 119.2 114.104 119.2C113.584 119.2 113.104 119.327 112.664 119.58C112.224 119.833 111.864 120.207 111.584 120.7C111.318 121.18 111.184 121.753 111.184 122.42C111.184 123.087 111.318 123.673 111.584 124.18C111.864 124.673 112.224 125.053 112.664 125.32C113.118 125.587 113.598 125.72 114.104 125.72C114.624 125.72 115.111 125.593 115.564 125.34C116.018 125.073 116.378 124.7 116.644 124.22C116.911 123.727 117.044 123.14 117.044 122.46ZM133.199 116.92L126.339 133.24H123.359L125.759 127.72L121.319 116.92H124.459L127.319 124.66L130.219 116.92H133.199Z" fill="white"/>
</svg>
