<svg id="Group_22103" data-name="Group 22103" xmlns="http://www.w3.org/2000/svg" width="194" height="194" viewBox="0 0 194 194">
  <path id="Path_17951" data-name="Path 17951" d="M97,194a97,97,0,0,0,97-97L97,0a97,97,0,0,0,0,194Z" fill="#577590"/>
  <path id="Path_17952" data-name="Path 17952" d="M194,97A97,97,0,0,1,97,0Z" fill="rgba(0,0,0,0.2)"/>
  <path id="Path_17953" data-name="Path 17953" d="M86.968,89.04v8.64a3,3,0,0,0,.74,2.18,2.813,2.813,0,0,0,2.08.74,2.842,2.842,0,0,0,2.1-.74,3,3,0,0,0,.74-2.18V89.04h2.82v8.62a5.561,5.561,0,0,1-.78,3.02,4.827,4.827,0,0,1-2.06,1.84,6.86,6.86,0,0,1-5.7,0,4.752,4.752,0,0,1-2-1.84,5.793,5.793,0,0,1-.74-3.02V89.04ZM106.514,103l-3.02-4.7-2.74,4.7h-3.16l4.4-7.04-4.46-6.92h3.22l3.02,4.68,2.72-4.68h3.16l-4.38,7.02,4.46,6.94ZM67.956,119.04a8.282,8.282,0,0,1,3.86.86,6.047,6.047,0,0,1,2.58,2.46,7.82,7.82,0,0,1,0,7.36,6.119,6.119,0,0,1-2.58,2.42,8.282,8.282,0,0,1-3.86.86h-4.88V119.04Zm-.1,11.58a4.8,4.8,0,0,0,3.4-7.98,4.511,4.511,0,0,0-3.4-1.24h-1.98v9.22Zm19.856-3.4a6.612,6.612,0,0,1-.08,1.08h-8.1a2.754,2.754,0,0,0,.84,1.88,2.592,2.592,0,0,0,1.82.68,2.287,2.287,0,0,0,2.22-1.34h3.02a5.1,5.1,0,0,1-1.84,2.64,5.408,5.408,0,0,1-3.34,1.02,5.9,5.9,0,0,1-2.88-.7,5.15,5.15,0,0,1-1.98-2.02,6.821,6.821,0,0,1,0-6.02,4.884,4.884,0,0,1,1.96-2,5.868,5.868,0,0,1,2.9-.7,5.772,5.772,0,0,1,2.82.68,4.689,4.689,0,0,1,1.94,1.94A5.718,5.718,0,0,1,87.712,127.22Zm-2.9-.8a2.19,2.19,0,0,0-.78-1.72,2.738,2.738,0,0,0-1.86-.66,2.553,2.553,0,0,0-1.76.64,2.749,2.749,0,0,0-.86,1.74ZM94,133.18a5.947,5.947,0,0,1-2.44-.48,4.472,4.472,0,0,1-1.72-1.34,3.409,3.409,0,0,1-.68-1.86h2.82a1.546,1.546,0,0,0,.62,1.06,2.234,2.234,0,0,0,1.38.42,2.082,2.082,0,0,0,1.24-.32.964.964,0,0,0,.46-.82.846.846,0,0,0-.56-.8,9.24,9.24,0,0,0-1.74-.6,15.371,15.371,0,0,1-2.04-.62,3.622,3.622,0,0,1-1.36-.98,2.66,2.66,0,0,1-.56-1.78,2.912,2.912,0,0,1,.52-1.68,3.635,3.635,0,0,1,1.52-1.2,5.775,5.775,0,0,1,2.34-.44,4.724,4.724,0,0,1,3.16,1,3.634,3.634,0,0,1,1.3,2.66h-2.68a1.405,1.405,0,0,0-.56-1.04,1.966,1.966,0,0,0-1.3-.4,2.112,2.112,0,0,0-1.18.28.9.9,0,0,0-.4.78.937.937,0,0,0,.56.86,9.245,9.245,0,0,0,1.74.58,14.818,14.818,0,0,1,1.98.62,3.38,3.38,0,0,1,1.34,1,2.648,2.648,0,0,1,.6,1.76,2.9,2.9,0,0,1-.54,1.72,3.476,3.476,0,0,1-1.52,1.2A5.806,5.806,0,0,1,94,133.18Zm8.079-12.58a1.759,1.759,0,0,1-1.24-.46,1.6,1.6,0,0,1-.48-1.18,1.539,1.539,0,0,1,.48-1.16,1.719,1.719,0,0,1,1.24-.48,1.653,1.653,0,0,1,1.22.48,1.51,1.51,0,0,1,.5,1.16,1.572,1.572,0,0,1-.5,1.18A1.691,1.691,0,0,1,102.074,120.6Zm1.38,1.32V133h-2.8V121.92Zm7.106-.18a4.575,4.575,0,0,1,2.18.5,3.929,3.929,0,0,1,1.48,1.26v-1.58h2.82v11.16a5.874,5.874,0,0,1-.62,2.74,4.527,4.527,0,0,1-1.86,1.92,5.876,5.876,0,0,1-3,.72,6.458,6.458,0,0,1-3.88-1.1,4.089,4.089,0,0,1-1.7-3h2.78a2.039,2.039,0,0,0,.94,1.2,3.3,3.3,0,0,0,1.78.46,2.717,2.717,0,0,0,1.98-.74,2.9,2.9,0,0,0,.76-2.2v-1.72a4.234,4.234,0,0,1-1.5,1.3,4.381,4.381,0,0,1-2.16.52,4.761,4.761,0,0,1-2.56-.72,5.1,5.1,0,0,1-1.84-2.02,6.665,6.665,0,0,1-.66-3.02,6.494,6.494,0,0,1,.66-2.98,5.009,5.009,0,0,1,1.82-2A4.9,4.9,0,0,1,110.56,121.74Zm3.66,5.72a3.53,3.53,0,0,0-.4-1.74,2.728,2.728,0,0,0-1.08-1.12,2.891,2.891,0,0,0-2.9-.02,2.914,2.914,0,0,0-1.08,1.12,3.5,3.5,0,0,0-.4,1.72,3.732,3.732,0,0,0,.4,1.76,3.076,3.076,0,0,0,1.08,1.14,2.8,2.8,0,0,0,1.44.4,2.948,2.948,0,0,0,1.46-.38,2.9,2.9,0,0,0,1.08-1.12A3.645,3.645,0,0,0,114.22,127.46Zm11.695-5.7a4.252,4.252,0,0,1,3.2,1.26,4.753,4.753,0,0,1,1.22,3.48V133h-2.8v-6.12a2.836,2.836,0,0,0-.66-2.02,2.321,2.321,0,0,0-1.8-.72,2.41,2.41,0,0,0-1.84.72,2.836,2.836,0,0,0-.66,2.02V133h-2.8V121.92h2.8v1.38a3.8,3.8,0,0,1,1.42-1.12A4.4,4.4,0,0,1,125.915,121.76Z" fill="#fff"/>
</svg>
