<svg xmlns="http://www.w3.org/2000/svg" width="188.468" height="194.052" viewBox="0 0 188.468 194.052">
  <g id="Group_22102" data-name="Group 22102" transform="translate(-27.78 -27.779)">
    <path id="Path_17948" data-name="Path 17948" d="M92.442,216.247A97,97,0,0,0,216.248,157.17L157.17,33.364A97,97,0,1,0,92.442,216.247Z" fill="#ff9d42"/>
    <path id="Path_17949" data-name="Path 17949" d="M216.242,157.164A97,97,0,0,1,157.164,33.359Z" fill="rgba(0,0,0,0.2)"/>
    <path id="Path_17950" data-name="Path 17950" d="M104.181,115.394l-4.658,13.16-2.64-.934,3.03-8.56-6.555,7.312-2-.707-.515-9.814-3.03,8.559-2.64-.934,4.658-13.16,3,1.061.722,11.267,7.649-8.3Zm-.865,8.583a6.507,6.507,0,0,1,1.616-2.589,5.019,5.019,0,0,1,2.383-1.278,4.9,4.9,0,0,1,2.666.2,4.457,4.457,0,0,1,1.869,1.192,4.372,4.372,0,0,1,.994,1.688l.527-1.489,2.659.941-3.7,10.445-2.659-.941.541-1.527a4.23,4.23,0,0,1-1.848.725,4.574,4.574,0,0,1-2.222-.256,4.76,4.76,0,0,1-2.173-1.533,5.162,5.162,0,0,1-1.042-2.511A6.672,6.672,0,0,1,103.316,123.977Zm8.207,2.947a3.521,3.521,0,0,0,.2-1.773,2.728,2.728,0,0,0-.644-1.416,2.888,2.888,0,0,0-2.727-.987,2.911,2.911,0,0,0-1.392.7,3.475,3.475,0,0,0-.951,1.488,3.731,3.731,0,0,0-.21,1.792,3.062,3.062,0,0,0,.638,1.435,2.789,2.789,0,0,0,1.224.858,2.956,2.956,0,0,0,1.5.129,2.909,2.909,0,0,0,1.392-.7A3.645,3.645,0,0,0,111.523,126.924Zm9.15-.813a3.823,3.823,0,0,1,3.833-.638l-.981,2.772-.7-.247a2.326,2.326,0,0,0-3.435,1.733l-1.842,5.2L114.911,134l3.7-10.445,2.639.934Zm8.045,12.776-1.97-5.7-1.575,4.449-2.64-.934,4.938-13.952,2.64.935-2.809,7.937,5.075-3.189,3.431,1.214-6.455,3.613,2.8,6.845Zm16.464-.3a6.525,6.525,0,0,1-.436.991l-7.635-2.7a2.748,2.748,0,0,0,.164,2.052,2.594,2.594,0,0,0,1.489,1.249,2.287,2.287,0,0,0,2.54-.523l2.847,1.008a5.106,5.106,0,0,1-2.616,1.875,5.415,5.415,0,0,1-3.489-.153,5.9,5.9,0,0,1-2.481-1.621,5.158,5.158,0,0,1-1.193-2.565,6.827,6.827,0,0,1,2.009-5.675,4.879,4.879,0,0,1,2.515-1.231,5.863,5.863,0,0,1,2.967.307,5.776,5.776,0,0,1,2.432,1.582,4.688,4.688,0,0,1,1.181,2.476A5.712,5.712,0,0,1,145.182,138.583Zm-2.467-1.722a2.188,2.188,0,0,0-.161-1.881,2.736,2.736,0,0,0-1.533-1.243,2.553,2.553,0,0,0-1.873.016,2.747,2.747,0,0,0-1.391,1.353Zm8.468.663-1.788,5.053a1.118,1.118,0,0,0-.029.86,1.41,1.41,0,0,0,.787.533l1.226.434-.788,2.225-1.659-.587q-3.338-1.182-2.189-4.424l1.781-5.034-1.244-.441.768-2.168,1.244.44.914-2.583,2.658.941-.914,2.583,2.338.828-.767,2.168Zm-80.489,12.65-1.088-6.156-1.244-.44-1.815,5.128-2.64-.934,4.658-13.16,4.94,1.748a6.038,6.038,0,0,1,2.408,1.468A3.835,3.835,0,0,1,77,139.847a4.1,4.1,0,0,1-.174,2.23,4.2,4.2,0,0,1-1.588,2.09,4.129,4.129,0,0,1-2.751.638l1.26,6.45ZM69.062,141.6l2.206.781a2.362,2.362,0,0,0,1.783.058,2.08,2.08,0,0,0,1.042-1.265,1.92,1.92,0,0,0-.034-1.582,2.367,2.367,0,0,0-1.422-1.076l-2.206-.781Zm18.561,8.437a6.609,6.609,0,0,1-.436.991l-7.636-2.7a2.753,2.753,0,0,0,.165,2.052,2.589,2.589,0,0,0,1.489,1.248,2.287,2.287,0,0,0,2.54-.522l2.847,1.008a5.1,5.1,0,0,1-2.615,1.874,5.407,5.407,0,0,1-3.489-.152,5.91,5.91,0,0,1-2.481-1.621,5.155,5.155,0,0,1-1.193-2.565,6.821,6.821,0,0,1,2.009-5.675,4.882,4.882,0,0,1,2.515-1.232,5.877,5.877,0,0,1,2.967.308,5.766,5.766,0,0,1,2.431,1.582,4.692,4.692,0,0,1,1.182,2.476A5.719,5.719,0,0,1,87.623,150.035Zm-2.467-1.722A2.191,2.191,0,0,0,85,146.431a2.733,2.733,0,0,0-1.533-1.242,2.552,2.552,0,0,0-1.873.016,2.751,2.751,0,0,0-1.391,1.353Zm6.4,9.437a5.954,5.954,0,0,1-2.14-1.267,4.475,4.475,0,0,1-1.174-1.837,3.409,3.409,0,0,1-.02-1.98l2.658.941a1.546,1.546,0,0,0,.231,1.206,2.234,2.234,0,0,0,1.161.856,2.073,2.073,0,0,0,1.276.112.964.964,0,0,0,.707-.619.846.846,0,0,0-.261-.941,9.289,9.289,0,0,0-1.44-1.146,15.413,15.413,0,0,1-1.716-1.266,3.618,3.618,0,0,1-.955-1.377,2.662,2.662,0,0,1,.066-1.865A2.911,2.911,0,0,1,91,147.157a3.631,3.631,0,0,1,1.833-.624,5.772,5.772,0,0,1,2.353.366,4.724,4.724,0,0,1,2.645,2,3.633,3.633,0,0,1,.338,2.941l-2.526-.894a1.405,1.405,0,0,0-.181-1.167,1.963,1.963,0,0,0-1.092-.811,2.112,2.112,0,0,0-1.206-.13.9.9,0,0,0-.637.6.936.936,0,0,0,.241,1,9.245,9.245,0,0,0,1.447,1.128,14.659,14.659,0,0,1,1.66,1.245,3.376,3.376,0,0,1,.93,1.39,2.646,2.646,0,0,1-.022,1.859A2.9,2.9,0,0,1,95.7,157.5a3.478,3.478,0,0,1-1.833.624A5.815,5.815,0,0,1,91.559,157.75Zm17.975.04a6.671,6.671,0,0,1-.436.991l-7.636-2.7a2.755,2.755,0,0,0,.165,2.053,2.589,2.589,0,0,0,1.489,1.248,2.287,2.287,0,0,0,2.54-.522l2.846,1.007a5.094,5.094,0,0,1-2.615,1.875,5.4,5.4,0,0,1-3.489-.153,5.9,5.9,0,0,1-2.481-1.621,5.147,5.147,0,0,1-1.193-2.564,6.819,6.819,0,0,1,2.009-5.675,4.88,4.88,0,0,1,2.515-1.232,5.865,5.865,0,0,1,2.967.308,5.767,5.767,0,0,1,2.432,1.582,4.692,4.692,0,0,1,1.181,2.476A5.724,5.724,0,0,1,109.534,157.79Zm-2.467-1.722a2.19,2.19,0,0,0-.161-1.882,2.739,2.739,0,0,0-1.534-1.243,2.555,2.555,0,0,0-1.872.016,2.751,2.751,0,0,0-1.392,1.354Zm3.648,2.352a6.5,6.5,0,0,1,1.616-2.589,5,5,0,0,1,2.383-1.278,4.9,4.9,0,0,1,2.666.2,4.47,4.47,0,0,1,1.87,1.192,4.393,4.393,0,0,1,.993,1.689l.527-1.49,2.659.941-3.7,10.445-2.658-.941.54-1.527a4.23,4.23,0,0,1-1.848.725,4.574,4.574,0,0,1-2.222-.256A4.758,4.758,0,0,1,111.371,164a5.152,5.152,0,0,1-1.041-2.511A6.652,6.652,0,0,1,110.715,158.42Zm8.207,2.947a3.523,3.523,0,0,0,.2-1.774,2.728,2.728,0,0,0-.644-1.416,2.894,2.894,0,0,0-2.727-.987,2.925,2.925,0,0,0-1.392.7,3.493,3.493,0,0,0-.951,1.488,3.734,3.734,0,0,0-.21,1.793,3.071,3.071,0,0,0,.638,1.435,2.8,2.8,0,0,0,1.224.857,2.828,2.828,0,0,0,2.895-.566A3.658,3.658,0,0,0,118.922,161.367Zm9.15-.814a3.822,3.822,0,0,1,3.833-.638l-.981,2.772-.7-.247a2.326,2.326,0,0,0-3.435,1.733l-1.842,5.2-2.639-.934,3.7-10.445,2.639.934Zm3.03,5.125a6.161,6.161,0,0,1,1.661-2.6,4.921,4.921,0,0,1,2.5-1.238,5.549,5.549,0,0,1,2.918.269,5.381,5.381,0,0,1,2.858,2.115,4.946,4.946,0,0,1,.755,3.322l-2.847-1.008a2.135,2.135,0,0,0-.4-1.329,2.262,2.262,0,0,0-1.179-.863,2.3,2.3,0,0,0-2.085.2,3.807,3.807,0,0,0-1.481,2.085,3.864,3.864,0,0,0-.161,2.553,2.32,2.32,0,0,0,1.505,1.444,2.124,2.124,0,0,0,2.6-.692l2.846,1.008a5.11,5.11,0,0,1-2.669,2.089,5.367,5.367,0,0,1-3.559-.136,5.666,5.666,0,0,1-2.444-1.607,5.1,5.1,0,0,1-1.162-2.533A6.289,6.289,0,0,1,131.1,165.678Zm19.8.963a4.434,4.434,0,0,1,1.925,1.275,3.657,3.657,0,0,1,.892,2.034,5.419,5.419,0,0,1-.326,2.6l-2.169,6.127-2.639-.934,2.042-5.769a2.84,2.84,0,0,0,.051-2.125,2.318,2.318,0,0,0-1.456-1.279,2.408,2.408,0,0,0-1.975.065,2.833,2.833,0,0,0-1.3,1.684l-2.042,5.769-2.64-.934,4.938-13.952,2.64.934-1.7,4.808a3.576,3.576,0,0,1,1.731-.576A4.679,4.679,0,0,1,150.907,166.641Z" fill="#fff"/>
  </g>
</svg>
