<?xml version="1.0" encoding="utf-8"?>
<!-- Generator: Adobe Illustrator 25.2.1, SVG Export Plug-In . SVG Version: 6.00 Build 0)  -->
<svg version="1.1" id="Layer_1" xmlns="http://www.w3.org/2000/svg" xmlns:xlink="http://www.w3.org/1999/xlink" x="0px" y="0px"
	 viewBox="0 0 100 100" style="enable-background:new 0 0 100 100;" xml:space="preserve">
<style type="text/css">
	.st0{fill:#F4EAE1;}
</style>
<path class="st0" d="M50,100c27.6,0,50-22.4,50-50S77.6,0,50,0S0,22.4,0,50S22.4,100,50,100z"/>
<g>
	<path d="M30.1,9.9l1.3-0.5l3.6,3.8c0.2,0.3,0.4,0.5,0.5,0.7l0,0c0-0.2-0.1-0.5-0.1-0.8l0-5.3l1.3-0.5l-0.1,7.5l-1.4,0.6L30.1,9.9z"
		/>
	<path d="M40.1,13.6l-1.7-6.7l1.3-0.3l1.7,6.7L40.1,13.6z"/>
	<path d="M48.3,11.2l0.1,1L43,12.9L42.2,6l5.4-0.6l0.1,1l-4.1,0.5l0.2,1.8l3.9-0.5l0.1,1L44,9.7l0.2,2L48.3,11.2z"/>
	<path d="M49.7,5.1L51,5.3l0.8,5.2c0,0.2,0,0.4,0,0.5l0,0c0-0.2,0.1-0.3,0.2-0.5l2-4.9l1.3,0.1l1,5.2c0,0.2,0.1,0.4,0.1,0.5l0,0
		c0-0.2,0.1-0.3,0.2-0.5l1.8-4.9l1.3,0.1l-2.7,6.6l-1.5-0.2l-0.9-5.1c0-0.2-0.1-0.3,0-0.5l0,0c0,0.1-0.1,0.3-0.1,0.5l-2,4.8
		l-1.5-0.2L49.7,5.1z"/>
	<path d="M70,12.4c-0.5,1.2-1.8,1.6-3.3,1l-1.9-0.8l-1,2.3l-1.2-0.5l2.8-6.3l3.2,1.4C70,10.1,70.6,11.2,70,12.4z M68.8,11.9
		c0.3-0.7,0-1.3-0.8-1.6l-1.7-0.8l-0.9,2.2l1.7,0.8C67.8,12.8,68.5,12.6,68.8,11.9z"/>
	<path d="M72.9,16.7l-1.5-1L70,18l-1.1-0.7l3.9-5.7l2.9,2c1.6,1.1,1.5,2.2,0.9,3.1c-0.4,0.7-1.3,1.1-2.4,0.7L74,20.8l-1.2-0.8
		L72.9,16.7z M72,15l1.6,1.1c0.8,0.6,1.4,0.3,1.8-0.2c0.3-0.5,0.3-1.1-0.5-1.7l-1.6-1.1L72,15z"/>
	<path d="M76.7,18.5c1.6-1.6,3.7-1.5,5.3,0.2c1.6,1.6,1.7,3.7,0.1,5.3c-1.6,1.6-3.7,1.5-5.3-0.2C75.2,22.1,75.1,20,76.7,18.5z
		 M81.1,22.9c1.1-1.1,1.2-2.5,0.2-3.5c-1-1.1-2.4-1-3.6,0.1c-1.1,1.1-1.2,2.5-0.1,3.6C78.6,24.1,79.9,24,81.1,22.9z"/>
	<path d="M79.9,27.2c-0.2-0.3-0.4-0.6-0.6-0.9l0.9-0.7c0.1,0.2,0.3,0.5,0.5,0.7c0.4,0.6,1,0.9,1.8,0.2l3.7-2.6l0.8,1.1l-3.8,2.8
		C81.8,28.8,80.7,28.4,79.9,27.2z"/>
	<path d="M85.7,34.7l-0.9,0.5l-2.5-4.9l6.1-3.2l2.5,4.8l-0.9,0.5l-1.9-3.6l-1.6,0.9l1.8,3.5l-0.9,0.5l-1.8-3.5L83.8,31L85.7,34.7z"
		/>
	<path d="M88.3,34.6c2.1-0.6,3.9,0.3,4.6,2.6c0.6,1.8,0,3.3-1.4,4L90.9,40c0.9-0.5,1.3-1.4,1-2.5c-0.4-1.4-1.7-2-3.1-1.5
		c-1.5,0.4-2.2,1.6-1.8,3c0.3,1.1,1.1,1.6,2.1,1.6l0.1,1.3c-1.5,0-2.7-0.8-3.3-2.6C85.2,37,86.3,35.3,88.3,34.6z"/>
	<path d="M93.6,48.2l-0.3-2.5l-5.8,0.7L87.4,45l5.8-0.7l-0.3-2.5l1.1-0.1l0.7,6.3L93.6,48.2z"/>
	<path d="M94.7,52.6L94.5,54l-5.1,1.2c-0.4,0.1-0.6,0.1-0.8,0.1l0,0c0.2,0.1,0.5,0.2,0.8,0.4l4.6,2.6l-0.2,1.4L87.2,56l0.2-1.5
		L94.7,52.6z"/>
	<path d="M86.5,59.5l6.6,1.9l-0.4,1.3l-6.6-1.9L86.5,59.5z"/>
	<path d="M84.5,67.8l-0.9-0.4l2.1-5l6.3,2.7l-2.1,5L89,69.6l1.6-3.8l-1.7-0.7l-1.5,3.6l-0.9-0.4l1.5-3.6L86.1,64L84.5,67.8z"/>
	<path d="M89.1,72l-0.8,1.1l-4.8-1.9c-0.2-0.1-0.3-0.1-0.5-0.2l0,0c0.1,0.1,0.2,0.2,0.3,0.4l3.2,4.2l-0.8,1.1l-5-1.7
		c-0.2-0.1-0.4-0.1-0.5-0.2l0,0c0.1,0.1,0.2,0.2,0.4,0.4l3.3,4l-0.8,1.1l-4.4-5.6l0.9-1.2l4.9,1.8c0.2,0.1,0.3,0.1,0.4,0.2l0,0
		c-0.1-0.1-0.2-0.2-0.3-0.4l-3.2-4.1l0.9-1.3L89.1,72z"/>
	<path d="M72.6,86.1c-0.8-1.1-0.5-2.4,0.8-3.3l1.7-1.3l-1.5-2l1.1-0.8l4.1,5.5l-2.8,2.1C74.7,87.2,73.4,87.1,72.6,86.1z M73.7,85.2
		c0.4,0.6,1.1,0.6,1.8,0.1l1.5-1.1l-1.4-1.9l-1.5,1.1C73.4,83.9,73.3,84.6,73.7,85.2z"/>
	<path d="M67.5,86.4l1.6-0.8l-1.2-2.4l1.2-0.6l3,6.2l-3.2,1.5c-1.7,0.8-2.7,0.2-3.2-0.8c-0.3-0.7-0.3-1.7,0.5-2.4l-2.8-1.8l1.3-0.7
		L67.5,86.4z M69.5,86.5l-1.8,0.9c-0.9,0.4-1,1.1-0.7,1.6c0.3,0.5,0.8,0.8,1.7,0.4l1.8-0.9L69.5,86.5z"/>
	<path d="M64.1,88.8c0.6,2.1-0.5,3.9-2.8,4.5c-2.2,0.6-4-0.4-4.6-2.6c-0.6-2.1,0.5-3.9,2.8-4.5C61.7,85.7,63.6,86.7,64.1,88.8z
		 M58.1,90.4c0.4,1.5,1.6,2.3,3,1.9c1.4-0.4,2.1-1.6,1.7-3.1c-0.4-1.5-1.6-2.3-3-1.9C58.3,87.7,57.7,88.9,58.1,90.4z"/>
	<path d="M54.9,87.3c0.4,0,0.8-0.1,1.1,0l0.1,1.1c-0.3,0-0.6,0-0.9,0c-0.8,0.1-1.2,0.4-1.1,1.5l0.5,4.5l-1.3,0.1l-0.5-4.7
		C52.6,88.1,53.5,87.4,54.9,87.3z"/>
	<path d="M45.6,88.6l0-1l5.5,0.2l-0.3,6.9l-5.4-0.2l0-1l4.1,0.2l0.1-1.9l-3.9-0.2l0-1l3.9,0.2l0.1-2L45.6,88.6z"/>
	<path d="M44.3,90.9c-0.5,2.1-2.2,3.2-4.5,2.7C37.9,93.2,37,92,37,90.4l1.4,0.1c0,1,0.5,1.8,1.7,2.1c1.4,0.3,2.5-0.5,2.9-2
		c0.3-1.5-0.3-2.7-1.8-3c-1.1-0.2-1.9,0.1-2.4,1.1l-1.2-0.6c0.7-1.3,2.1-2,3.9-1.5C43.8,87.1,44.8,88.8,44.3,90.9z"/>
	<path d="M30,88.8l2.3,1l2.3-5.3l1.2,0.5l-2.3,5.3l2.3,1l-0.4,1l-5.8-2.5L30,88.8z"/>
	<path d="M25.6,87.5l-1.1-0.9l1.5-5c0.1-0.3,0.2-0.6,0.3-0.8l0,0c-0.2,0.2-0.4,0.3-0.7,0.5L21,83.9L19.9,83l6.5-3.7l1.2,0.9
		L25.6,87.5z"/>
	<path d="M23.7,77l-4.9,4.8l-0.9-0.9l4.9-4.8L23.7,77z"/>
	<path d="M17.4,71.1l0.8-0.6l3.3,4.4L16.1,79l-3.3-4.3l0.8-0.6l2.5,3.2l1.5-1.1l-2.4-3.1l0.8-0.6l2.4,3.1l1.6-1.2L17.4,71.1z"/>
	<path d="M11.5,73l-0.6-1.2l4.1-3.3c0.2-0.1,0.3-0.2,0.4-0.3l0,0c-0.1,0-0.3,0.1-0.5,0.1L9.7,69l-0.6-1.2l4-3.5
		c0.2-0.1,0.3-0.2,0.4-0.3l0,0c-0.1,0-0.3,0.1-0.5,0.1L7.8,65l-0.6-1.2l7.1-1.1l0.6,1.4l-4,3.4c-0.1,0.1-0.3,0.2-0.4,0.3l0,0
		c0.1-0.1,0.3-0.1,0.5-0.1l5.2-0.7l0.6,1.4L11.5,73z"/>
	<path d="M7.5,51.8c1.3-0.2,2.3,0.7,2.5,2.3l0.3,2.1l2.5-0.3l0.2,1.3L6,58l-0.4-3.5C5.4,53,6.2,51.9,7.5,51.8z M7.7,53.1
		c-0.7,0.1-1.1,0.7-1,1.5l0.2,1.9l2.3-0.3L9,54.4C8.9,53.5,8.4,53,7.7,53.1z"/>
	<path d="M9.7,47.1l-0.1,1.8l2.7,0.2l-0.1,1.3l-6.9-0.5l0.2-3.5c0.1-1.9,1.2-2.4,2.2-2.3c0.8,0.1,1.6,0.5,1.8,1.7l3-1.6l-0.1,1.5
		L9.7,47.1z M8.6,48.8l0.1-2c0.1-1-0.4-1.4-1-1.4c-0.6,0-1.1,0.3-1.2,1.3l-0.1,2L8.6,48.8z"/>
	<path d="M9.3,43c-2.1-0.6-3.1-2.4-2.5-4.6c0.6-2.2,2.4-3.3,4.5-2.7s3.1,2.4,2.5,4.6C13.2,42.5,11.4,43.5,9.3,43z M10.9,36.9
		c-1.5-0.4-2.7,0.2-3.1,1.7c-0.4,1.4,0.3,2.6,1.9,3c1.5,0.4,2.7-0.2,3.1-1.7C13.2,38.5,12.4,37.4,10.9,36.9z"/>
	<path d="M15.2,35.8c-0.2,0.4-0.3,0.7-0.5,1l-1-0.4c0.1-0.2,0.3-0.5,0.4-0.8c0.3-0.7,0.2-1.3-0.7-1.7L9.2,32l0.5-1.2l4.3,1.9
		C15.6,33.3,15.8,34.5,15.2,35.8z"/>
	<path d="M18.7,27l0.9,0.5l-2.9,4.6l-5.8-3.7l2.9-4.6l0.9,0.5L12.4,28l1.6,1l2.1-3.3l0.8,0.5l-2.1,3.3l1.7,1.1L18.7,27z"/>
	<path d="M17.3,24.8c-1.6-1.5-1.7-3.5-0.1-5.3c1.3-1.4,2.8-1.6,4.2-0.8l-0.8,1.1c-0.9-0.5-1.8-0.4-2.6,0.4c-1,1.1-0.9,2.4,0.3,3.5
		c1.1,1,2.5,1.1,3.5,0c0.8-0.8,0.8-1.8,0.3-2.6l1.1-0.8c0.8,1.3,0.7,2.8-0.6,4.2C20.9,26.2,18.9,26.2,17.3,24.8z"/>
	<path d="M26.3,13.4l-2,1.5l3.5,4.6l-1.1,0.8l-3.5-4.6l-2,1.5l-0.6-0.9l5.1-3.8L26.3,13.4z"/>
</g>
</svg>
